<svg width="76" height="28" viewBox="0 0 76 28" fill="none" xmlns="http://www.w3.org/2000/svg">
<path d="M17.082 16.8086V11.2031C17.082 10.4349 16.9323 9.71224 16.6328 9.03516C16.3464 8.34505 15.9492 7.74609 15.4414 7.23828C14.9336 6.73047 14.3346 6.33333 13.6445 6.04688C12.9674 5.7474 12.2448 5.59766 11.4766 5.59766C10.7083 5.59766 9.97917 5.7474 9.28906 6.04688C8.61198 6.33333 8.01953 6.73047 7.51172 7.23828C7.00391 7.74609 6.60026 8.34505 6.30078 9.03516C6.01432 9.71224 5.87109 10.4349 5.87109 11.2031V16.8086H17.082ZM22.6875 28H17.082V22.3945H5.87109V28H0.285156V11.2031C0.285156 9.65365 0.578125 8.20182 1.16406 6.84766C1.75 5.48047 2.54427 4.28906 3.54688 3.27344C4.5625 2.25781 5.7474 1.45703 7.10156 0.871094C8.46875 0.285156 9.92708 -0.0078125 11.4766 -0.0078125C13.026 -0.0078125 14.4779 0.285156 15.832 0.871094C17.1992 1.45703 18.3906 2.25781 19.4062 3.27344C20.4219 4.28906 21.2227 5.48047 21.8086 6.84766C22.3945 8.20182 22.6875 9.65365 22.6875 11.2031V28ZM49.9922 13.9961C49.9922 15.2852 49.8229 16.5286 49.4844 17.7266C49.1589 18.9115 48.6901 20.0247 48.0781 21.0664C47.4661 22.0951 46.737 23.0391 45.8906 23.8984C45.0443 24.7448 44.1003 25.474 43.0586 26.0859C42.0169 26.6979 40.8971 27.1732 39.6992 27.5117C38.5143 27.8372 37.2773 28 35.9883 28H27.5508V-0.0078125H35.9883C37.2773 -0.0078125 38.5143 0.161458 39.6992 0.5C40.8971 0.825521 42.0169 1.29427 43.0586 1.90625C44.1003 2.51823 45.0443 3.25391 45.8906 4.11328C46.737 4.95964 47.4661 5.90365 48.0781 6.94531C48.6901 7.97396 49.1589 9.08724 49.4844 10.2852C49.8229 11.4701 49.9922 12.707 49.9922 13.9961ZM44.3867 13.9961C44.3867 12.8372 44.1654 11.75 43.7227 10.7344C43.293 9.71875 42.694 8.83333 41.9258 8.07812C41.1706 7.3099 40.2786 6.70443 39.25 6.26172C38.2344 5.81901 37.1471 5.59766 35.9883 5.59766H33.1953V22.3945H35.9883C37.1471 22.3945 38.2344 22.1797 39.25 21.75C40.2786 21.3073 41.1706 20.7083 41.9258 19.9531C42.694 19.1849 43.293 18.293 43.7227 17.2773C44.1654 16.2487 44.3867 15.1549 44.3867 13.9961ZM70.207 16.8086V11.2031C70.207 10.4349 70.0573 9.71224 69.7578 9.03516C69.4714 8.34505 69.0742 7.74609 68.5664 7.23828C68.0586 6.73047 67.4596 6.33333 66.7695 6.04688C66.0924 5.7474 65.3698 5.59766 64.6016 5.59766C63.8333 5.59766 63.1042 5.7474 62.4141 6.04688C61.737 6.33333 61.1445 6.73047 60.6367 7.23828C60.1289 7.74609 59.7253 8.34505 59.4258 9.03516C59.1393 9.71224 58.9961 10.4349 58.9961 11.2031V16.8086H70.207ZM75.8125 28H70.207V22.3945H58.9961V28H53.4102V11.2031C53.4102 9.65365 53.7031 8.20182 54.2891 6.84766C54.875 5.48047 55.6693 4.28906 56.6719 3.27344C57.6875 2.25781 58.8724 1.45703 60.2266 0.871094C61.5938 0.285156 63.0521 -0.0078125 64.6016 -0.0078125C66.151 -0.0078125 67.6029 0.285156 68.957 0.871094C70.3242 1.45703 71.5156 2.25781 72.5312 3.27344C73.5469 4.28906 74.3477 5.48047 74.9336 6.84766C75.5195 8.20182 75.8125 9.65365 75.8125 11.2031V28Z" fill="white"/>
</svg>
