<svg width="40" height="40" viewBox="0 0 40 40" fill="none" xmlns="http://www.w3.org/2000/svg">
<path d="M9.41666 29.0833C11.0556 27.9075 12.7407 26.9978 14.4721 26.3542C16.2037 25.7106 18.0464 25.3888 20 25.3888C21.9536 25.3888 23.8008 25.7106 25.5417 26.3542C27.2825 26.9978 28.9724 27.9075 30.6112 29.0833C31.7501 27.7036 32.5811 26.2638 33.1042 24.7638C33.6272 23.2638 33.8888 21.6758 33.8888 20C33.8888 16.0833 32.5532 12.7893 29.8821 10.1179C27.2107 7.44682 23.9167 6.11126 20 6.11126C16.0833 6.11126 12.7893 7.44682 10.1179 10.1179C7.4468 12.7893 6.11125 16.0833 6.11125 20C6.11125 21.6758 6.37736 23.2638 6.90958 24.7638C7.44208 26.2638 8.27777 27.7036 9.41666 29.0833ZM19.995 21.3888C18.3781 21.3888 17.0162 20.8339 15.9096 19.7242C14.8032 18.6142 14.25 17.2507 14.25 15.6338C14.25 14.0168 14.805 12.6551 15.915 11.5488C17.0247 10.4421 18.3881 9.88876 20.005 9.88876C21.6219 9.88876 22.9837 10.4438 24.0904 11.5538C25.1968 12.6638 25.75 14.0272 25.75 15.6442C25.75 17.2611 25.195 18.6228 24.085 19.7292C22.9753 20.8356 21.6119 21.3888 19.995 21.3888ZM20.0129 36.6667C17.7174 36.6667 15.5557 36.2292 13.5279 35.3542C11.5001 34.4792 9.73152 33.2871 8.22208 31.7779C6.71291 30.2685 5.52083 28.5021 4.64583 26.4788C3.77083 24.4554 3.33333 22.2933 3.33333 19.9925C3.33333 17.692 3.77083 15.5324 4.64583 13.5138C5.52083 11.4954 6.71291 9.73154 8.22208 8.2221C9.73152 6.71293 11.4979 5.52084 13.5212 4.64584C15.5446 3.77084 17.7067 3.33334 20.0075 3.33334C22.3081 3.33334 24.4676 3.77084 26.4862 4.64584C28.5046 5.52084 30.2685 6.71293 31.7779 8.2221C33.2871 9.73154 34.4792 11.4957 35.3542 13.5146C36.2292 15.5338 36.6667 17.6913 36.6667 19.9871C36.6667 22.2827 36.2292 24.4443 35.3542 26.4721C34.4792 28.4999 33.2871 30.2685 31.7779 31.7779C30.2685 33.2871 28.5043 34.4792 26.4854 35.3542C24.4662 36.2292 22.3087 36.6667 20.0129 36.6667ZM20 33.8888C21.5092 33.8888 22.9675 33.6689 24.375 33.2292C25.7825 32.7895 27.139 32.0649 28.4446 31.0554C27.139 30.1204 25.7779 29.4051 24.3612 28.9096C22.9446 28.4143 21.4908 28.1667 20 28.1667C18.5092 28.1667 17.0554 28.4143 15.6387 28.9096C14.2221 29.4051 12.861 30.1204 11.5554 31.0554C12.861 32.0649 14.2175 32.7895 15.625 33.2292C17.0325 33.6689 18.4908 33.8888 20 33.8888ZM20 18.6113C20.8703 18.6113 21.5832 18.3335 22.1387 17.7779C22.6943 17.2224 22.9721 16.5093 22.9721 15.6388C22.9721 14.7685 22.6943 14.0556 22.1387 13.5C21.5832 12.9445 20.8703 12.6667 20 12.6667C19.1297 12.6667 18.4168 12.9445 17.8612 13.5C17.3057 14.0556 17.0279 14.7685 17.0279 15.6388C17.0279 16.5093 17.3057 17.2224 17.8612 17.7779C18.4168 18.3335 19.1297 18.6113 20 18.6113Z" fill="black"/>
</svg>
